<svg width="40" height="40" viewBox="0 0 40 40" fill="none" xmlns="http://www.w3.org/2000/svg">
<path d="M36.0668 6.06658L33.9335 3.93325C33.746 3.74377 33.5227 3.59336 33.2767 3.49071C33.0307 3.38806 32.7667 3.33521 32.5002 3.33521C32.2336 3.33521 31.9696 3.38806 31.7236 3.49071C31.4776 3.59336 31.2544 3.74377 31.0668 3.93325L3.93349 31.0666C3.74402 31.2541 3.59361 31.4773 3.49095 31.7234C3.3883 31.9694 3.33545 32.2333 3.33545 32.4999C3.33545 32.7665 3.3883 33.0304 3.49095 33.2765C3.59361 33.5225 3.74402 33.7457 3.93349 33.9332L6.06682 36.0666C6.25319 36.2581 6.47605 36.4103 6.72223 36.5143C6.96841 36.6182 7.23293 36.6717 7.50016 36.6717C7.76738 36.6717 8.0319 36.6182 8.27808 36.5143C8.52427 36.4103 8.74712 36.2581 8.93349 36.0666L36.0668 8.93325C36.2583 8.74688 36.4106 8.52402 36.5145 8.27784C36.6184 8.03165 36.672 7.76714 36.672 7.49991C36.672 7.23269 36.6184 6.96817 36.5145 6.72199C36.4106 6.4758 36.2583 6.25295 36.0668 6.06658Z" stroke="#10B981" stroke-width="3.33333" stroke-linecap="round" stroke-linejoin="round"/>
<path d="M23.3335 11.6667L28.3335 16.6667" stroke="#10B981" stroke-width="3.33333" stroke-linecap="round" stroke-linejoin="round"/>
<path d="M8.3335 10V16.6667" stroke="#10B981" stroke-width="3.33333" stroke-linecap="round" stroke-linejoin="round"/>
<path d="M31.6665 23.3333V29.9999" stroke="#10B981" stroke-width="3.33333" stroke-linecap="round" stroke-linejoin="round"/>
<path d="M16.6665 3.33325V6.66659" stroke="#10B981" stroke-width="3.33333" stroke-linecap="round" stroke-linejoin="round"/>
<path d="M11.6667 13.3333H5" stroke="#10B981" stroke-width="3.33333" stroke-linecap="round" stroke-linejoin="round"/>
<path d="M35.0002 26.6667H28.3335" stroke="#10B981" stroke-width="3.33333" stroke-linecap="round" stroke-linejoin="round"/>
<path d="M18.3333 5H15" stroke="#10B981" stroke-width="3.33333" stroke-linecap="round" stroke-linejoin="round"/>
</svg>
