<svg width="16" height="16" viewBox="0 0 16 16" fill="none" xmlns="http://www.w3.org/2000/svg">
<path d="M6.62479 10.3334C6.56527 10.1027 6.44502 9.89215 6.27653 9.72367C6.10805 9.55519 5.8975 9.43494 5.66679 9.37542L1.57679 8.32075C1.50701 8.30095 1.4456 8.25892 1.40186 8.20105C1.35813 8.14318 1.33447 8.07262 1.33447 8.00008C1.33447 7.92755 1.35813 7.85699 1.40186 7.79912C1.4456 7.74125 1.50701 7.69922 1.57679 7.67942L5.66679 6.62408C5.89742 6.56462 6.10792 6.44447 6.27639 6.27611C6.44486 6.10775 6.56517 5.89734 6.62479 5.66675L7.67946 1.57675C7.69906 1.5067 7.74105 1.44498 7.799 1.40101C7.85696 1.35705 7.92771 1.33325 8.00046 1.33325C8.0732 1.33325 8.14395 1.35705 8.20191 1.40101C8.25987 1.44498 8.30185 1.5067 8.32146 1.57675L9.37546 5.66675C9.43497 5.89747 9.55523 6.10802 9.72371 6.2765C9.89219 6.44498 10.1027 6.56523 10.3335 6.62475L14.4235 7.67875C14.4938 7.69815 14.5558 7.74009 14.6 7.79814C14.6442 7.85618 14.6682 7.92713 14.6682 8.00008C14.6682 8.07304 14.6442 8.14399 14.6 8.20203C14.5558 8.26008 14.4938 8.30202 14.4235 8.32142L10.3335 9.37542C10.1027 9.43494 9.89219 9.55519 9.72371 9.72367C9.55523 9.89215 9.43497 10.1027 9.37546 10.3334L8.32079 14.4234C8.30118 14.4935 8.2592 14.5552 8.20124 14.5992C8.14328 14.6431 8.07254 14.6669 7.99979 14.6669C7.92704 14.6669 7.85629 14.6431 7.79834 14.5992C7.74038 14.5552 7.69839 14.4935 7.67879 14.4234L6.62479 10.3334Z" stroke="#10B981" stroke-width="1.33333" stroke-linecap="round" stroke-linejoin="round"/>
<path d="M13.3335 2V4.66667" stroke="#10B981" stroke-width="1.33333" stroke-linecap="round" stroke-linejoin="round"/>
<path d="M14.6667 3.33325H12" stroke="#10B981" stroke-width="1.33333" stroke-linecap="round" stroke-linejoin="round"/>
<path d="M2.6665 11.3333V12.6666" stroke="#10B981" stroke-width="1.33333" stroke-linecap="round" stroke-linejoin="round"/>
<path d="M3.33333 12H2" stroke="#10B981" stroke-width="1.33333" stroke-linecap="round" stroke-linejoin="round"/>
</svg>
